<svg xmlns="http://www.w3.org/2000/svg" width="300" height="60" viewBox="0 0 608 120">
  <defs>
    <style>
      .str0 {stroke:#000000;stroke-width:3;stroke-linecap:round;stroke-linejoin:round}
      .str1 {stroke:#FF00FF;stroke-width:3;stroke-linecap:round;stroke-linejoin:round}
      .fil0 {fill:none}
    </style>
  </defs>
  
  <!-- Transparent by default - will show layers beneath -->
  <g transform="translate(0,0)">
    <polyline class="fil0 str0" points="163.29,118.89 38.01,119.15 38.01,0.35"/>
    <polyline class="fil0 str0" points="163.29,88.53 70.1,88.73 70.1,0.35"/>
    <polyline class="fil0 str1" points="173.41,0.11 280.66,0.11 300.93,15.27 280.66,30.3 173.77,30.3"/>
    <line class="fil0 str0" x1="299.89" y1="44.94" x2="174.45" y2="44.94"/>
    <line class="fil0 str0" x1="299.89" y1="74.17" x2="174.45" y2="74.17"/>
    <polyline class="fil0 str1" points="300.93,88.17 193.68,88.17 173.41,103.32 193.68,118.36 300.57,118.36"/>
    <polyline class="fil0 str0" points="309.08,120.07 309.08,0 433.86,0 433.86,120.07"/>
    <rect class="fil0 str0" x="340.24" y="30.15" width="62.47" height="30.01"/>
    <polyline class="fil0 str0" points="340.24,120.07 340.24,90.06 402.7,90.06 402.7,120.07"/>
    <polyline class="fil0 str0" points="446.07,119.14 446.07,0.29 477.71,0.29 538.74,71.6 538.74,-0.07"/>
    <polyline class="fil0 str0" points="569.99,-0.07 569.99,118.78 538.35,118.78 477.32,47.47 477.32,119.14"/>
  </g>
</svg>